<?xml version="1.0" encoding="UTF-8"?>
<svg id="Layer_1" data-name="Layer 1" xmlns="http://www.w3.org/2000/svg" version="1.1" viewBox="0 0 533 200">
  <defs>
    <style>
      .cls-1 {
        stroke: #cf8229;
        stroke-miterlimit: 10;
        stroke-width: 3.1px;
      }

      .cls-1, .cls-2 {
        fill: none;
      }

      .cls-3 {
        fill: #818181;
      }

      .cls-3, .cls-2, .cls-4, .cls-5, .cls-6 {
        stroke-width: 0px;
      }

      .cls-4, .cls-7 {
        fill: #010101;
      }

      .cls-5 {
        fill: #cf8229;
      }

      .cls-6 {
        fill: #fff;
      }

      .cls-7 {
        font-family: Algerian, Algerian;
        font-size: 42.7px;
        isolation: isolate;
      }
    </style>
  </defs>
  <g>
    <path class="cls-3" d="M141.9,154.7c-16.4,0-29.9-13.4-29.9-29.9v-40.9c0-16.4,13.4-29.9,29.9-29.9h82.2c16.4,0,29.9,13.4,29.9,29.9v40.9c0,16.4-13.4,29.9-29.9,29.9h-82.2Z"/>
    <path class="cls-5" d="M224.1,60.1c13.2,0,23.8,10.7,23.8,23.8v40.9c0,13.2-10.7,23.8-23.8,23.8h-82.2c-13.1,0-23.7-10.7-23.7-23.8v-40.9c0-13.2,10.7-23.8,23.8-23.8h82.2M224.1,48.1h-82.2c-19.8,0-35.8,16.1-35.8,35.8v40.9c0,19.8,16.1,35.8,35.8,35.8h82.2c19.8,0,35.8-16.1,35.8-35.8v-40.9c0-19.8-16-35.8-35.8-35.8h0Z"/>
  </g>
  <circle class="cls-4" cx="149.7" cy="83.9" r="7.9"/>
  <circle class="cls-6" cx="147.5" cy="82" r="2.2"/>
  <circle class="cls-4" cx="213.6" cy="82.5" r="7.9"/>
  <circle class="cls-6" cx="210.7" cy="80.8" r="2.4"/>
  <path class="cls-4" d="M196.9,113.1c-2.3,2.8-6.9,5.8-12.7,7.9-4.1,1.4-8,2.1-11.2,2.1s-5.3-.6-6.5-1.7c-2.2,2.1-3.3,4.3-2.7,6.2.8,2.7,4.7,4.2,10,4.2s7.1-.6,11.1-1.7c10.4-3.1,17.8-9,16.6-13.4-.4-1.8-2.1-3-4.5-3.6h0Z"/>
  <g>
    <line class="cls-1" x1="164.7" y1="18" x2="176.5" y2="48.2"/>
    <line class="cls-2" x1="164.7" y1="18" x2="176.5" y2="48.2"/>
  </g>
  <line class="cls-1" x1="189.2" y1="48.2" x2="201.6" y2="17.6"/>
  <g>
    <circle class="cls-3" cx="163.7" cy="14.5" r="5.5"/>
    <path class="cls-5" d="M163.7,9c-3.1,0-5.5,2.5-5.5,5.5s2.5,5.5,5.5,5.5,5.5-2.5,5.5-5.5-2.6-5.5-5.5-5.5h0Z"/>
  </g>
  <g>
    <circle class="cls-3" cx="202.8" cy="14.7" r="5.5"/>
    <path class="cls-5" d="M202.8,9.1c-3.1,0-5.5,2.5-5.5,5.5s2.5,5.5,5.5,5.5,5.5-2.5,5.5-5.5c0-3.1-2.5-5.5-5.5-5.5h0Z"/>
  </g>
  <g>
    <polygon class="cls-3" points="216.8 164.1 217 164.1 216.9 164.2 216.8 164.1"/>
    <polygon class="cls-5" points="208.2 159 212.6 166.6 216.8 174.1 221.3 166.7 225.7 159.1 217 159.1 208.2 159"/>
  </g>
  <g>
    <polygon class="cls-3" points="147.4 165.7 147.5 165.7 147.5 165.7 147.4 165.7"/>
    <polygon class="cls-5" points="138.8 160.6 143.1 168.2 147.4 175.7 151.8 168.2 156.2 160.7 147.5 160.6 138.8 160.6"/>
  </g>
  <rect class="cls-2" x="263.8" y="108.6" width="174.9" height="36.5"/>
  <text class="cls-7" transform="translate(263.8 145.1)"><tspan x="0" y="0">CINE HUB</tspan></text>
</svg>